# This file uses meters as units for non-parametric coordinates.

mtllib Mok.mtl
g default
v 161.779999 41.721390 80.497330
v 154.062302 41.721390 80.429810
v 149.896576 41.721390 87.368568
v 153.834595 41.721390 94.254211
v 161.972565 41.721390 94.254211
v 165.770050 41.721390 87.408211
v 161.662628 56.732754 81.897415
v 154.681610 56.595814 81.665253
v 151.430420 55.986710 87.169304
v 155.015656 56.595814 93.164459
v 161.662567 56.370560 93.164459
v 164.915115 56.462597 87.331596
v 157.997025 41.721390 87.331596
v 160.871536 56.732754 82.642273
v 155.226578 56.595814 82.642258
v 152.404007 55.954311 87.401466
v 155.226456 56.563416 92.419594
v 160.871536 56.625950 92.419594
v 163.694000 56.717991 87.331596
v 161.947754 42.513062 80.565903
v 165.898499 42.513062 87.408798
v 161.947754 42.513062 94.251701
v 153.888290 42.513062 94.251701
v 149.937531 42.513062 87.408798
v 154.046371 42.513062 80.565903
v 161.803253 45.427788 80.738998
v 165.609497 45.427788 87.331596
v 161.803253 45.427788 93.924187
v 154.190857 45.427788 93.924187
v 150.177002 45.427788 87.383942
v 154.190857 45.777489 80.738983
v 161.742096 51.170132 81.146530
v 165.289764 51.170132 87.291359
v 161.742050 51.170132 93.436172
v 154.646744 51.170132 93.436172
v 150.891388 51.170132 87.343712
v 154.564453 51.290161 81.252777
v 161.735657 54.040077 81.454681
v 165.128754 54.040077 87.331596
v 161.735626 54.040077 93.208511
v 154.801361 54.040077 93.208511
v 151.254501 54.040077 87.331596
v 154.801437 54.040077 81.454666
v 161.992310 51.741814 80.371567
v 165.884872 51.741814 87.271988
v 161.889725 51.741814 94.191765
v 154.002029 51.741814 94.211136
v 150.006927 51.741814 87.291359
v 154.002029 51.741814 80.371567
v 162.252762 53.388439 80.355255
v 166.202866 53.388439 87.197105
v 162.144562 53.388439 94.133194
v 154.244431 53.388439 94.133194
v 150.294205 53.388439 87.291359
v 154.244431 53.388439 80.449524
v 162.312225 43.090996 79.956894
v 166.827271 43.090996 87.331596
v 162.412170 43.090996 94.978752
v 153.582108 43.090996 94.978752
v 149.166962 43.090996 87.331596
v 153.482117 43.090996 79.956894
v 162.301895 44.889671 79.875427
v 166.606689 44.889671 87.331596
v 162.301895 44.889671 94.787750
v 153.692459 44.889671 94.787750
v 149.387543 44.676781 87.331596
v 153.692459 44.676781 79.875397
v 159.294205 45.885040 80.738998
v 159.381790 47.712608 80.731491
v 156.511566 45.885040 80.738983
v 156.612473 47.712608 80.731491
v 159.294205 46.047615 78.323395
v 159.381790 47.550026 79.480667
v 156.696365 46.047623 78.552399
v 156.612473 47.550026 79.480667
v 159.458008 50.156139 76.185486
v 159.381790 50.791321 77.675735
v 156.861389 50.156155 76.414505
v 156.720612 50.791321 77.675735
v 159.300705 55.352032 76.864059
v 159.519028 54.181625 78.071152
v 156.519318 55.352043 76.864059
v 156.857849 54.181625 78.071152
v 159.680099 56.420799 79.524658
v 159.579102 55.102028 79.518082
v 156.945663 56.420815 79.524673
v 156.809830 55.102028 79.518082
v 159.669540 55.974205 81.622971
v 156.956116 55.974205 81.622971
v 159.733337 54.637371 81.445114
v 156.655579 54.637371 81.445099
v 160.871536 44.346970 82.642273
v 155.226578 44.210022 82.642258
v 152.404007 43.568527 87.401466
v 155.226456 44.177628 92.419594
v 160.871536 44.240166 92.419594
v 163.694000 44.332207 87.331596
v 158.289871 44.332207 87.445290
vt 0.568588 0.204368
vt 0.693225 0.206161
vt 0.564599 0.348093
vt 0.423537 0.204368
vt 0.416754 0.348093
vt 0.281204 0.205265
vt 0.283533 0.348093
vt 0.148338 0.205265
vt 0.150520 0.359750
vt 0.051707 0.213963
vt 0.049661 0.366322
vt 0.740323 0.214524
vt 0.011158 0.265681
vt 0.009984 0.216638
vt 0.848056 0.214859
vt 0.799554 0.216638
vt 0.845230 0.354665
vt 0.693742 0.348093
vt 0.736618 0.262095
vt 0.800333 0.265681
vt 0.598467 0.081670
vt 0.738007 0.113413
vt 0.729540 0.126694
vt 0.588073 0.097224
vt 0.449178 0.068263
vt 0.441095 0.084072
vt 0.298303 0.071575
vt 0.293577 0.087664
vt 0.152869 0.092300
vt 0.147414 0.107956
vt 0.009121 0.128356
vt 0.009694 0.145663
vt 0.729715 0.176995
vt 0.573502 0.145889
vt 0.583348 0.129340
vt 0.432134 0.134074
vt 0.440042 0.116516
vt 0.290131 0.138289
vt 0.296209 0.120019
vt 0.152286 0.154896
vt 0.153174 0.136044
vt 0.028862 0.195350
vt 0.014380 0.173961
vt 0.868135 0.135815
vt 0.854600 0.202023
vt 0.866670 0.179187
vt 0.874964 0.151729
vt 0.724233 0.158536
vt 0.138075 0.094257
vt 0.283659 0.074142
vt 0.432948 0.068296
vt 0.580697 0.080031
vt 0.727186 0.111120
vt 0.712552 0.173845
vt 0.587984 0.148030
vt 0.446793 0.134550
vt 0.304958 0.137171
vt 0.162667 0.152355
vt 0.027669 0.034372
vt 0.029091 0.055385
vt 0.754334 0.055385
vt 0.175632 0.034372
vt 0.176327 0.055385
vt 0.319218 0.034372
vt 0.319995 0.055385
vt 0.466695 0.034372
vt 0.466345 0.055385
vt 0.609404 0.034372
vt 0.608678 0.055385
vt 0.756760 0.034372
vt 0.898474 0.034372
vt 0.899896 0.055385
vt 0.568643 0.410200
vt 0.703561 0.412563
vt 0.565077 0.424771
vt 0.436784 0.399454
vt 0.425411 0.412455
vt 0.301711 0.378646
vt 0.288194 0.394332
vt 0.157006 0.374174
vt 0.148031 0.390817
vt 0.015006 0.390430
vt 0.009109 0.409770
vt 0.717349 0.464756
vt 0.553014 0.474615
vt 0.566245 0.456277
vt 0.416010 0.463021
vt 0.425786 0.443793
vt 0.278680 0.446046
vt 0.288351 0.425655
vt 0.144646 0.442397
vt 0.149765 0.422179
vt 0.025566 0.460516
vt 0.012408 0.440919
vt 0.692591 0.398431
vt 0.829003 0.373013
vt 0.837050 0.442919
vt 0.842813 0.420029
vt 0.841728 0.388725
vt 0.704319 0.443893
vt 0.158328 0.441196
vt 0.295378 0.447101
vt 0.434451 0.463546
vt 0.575505 0.476907
vt 0.694107 0.466271
vt 0.138792 0.374318
vt 0.282590 0.374399
vt 0.425111 0.395184
vt 0.560808 0.410390
vt 0.704905 0.394724
vt 0.056237 0.557864
vt 0.070280 0.573053
vt 0.673453 0.583389
vt 0.172176 0.531844
vt 0.184157 0.545964
vt 0.301674 0.539644
vt 0.305714 0.553391
vt 0.424646 0.537496
vt 0.428329 0.557886
vt 0.547899 0.545397
vt 0.556023 0.567065
vt 0.552206 0.497363
vt 0.676627 0.513658
vt 0.426869 0.491284
vt 0.298669 0.488864
vt 0.171806 0.492970
vt 0.045775 0.508045
vt 0.012725 0.552549
vt 0.709163 0.534937
vt 0.013851 0.525273
vt 0.788404 0.598261
vt 0.773654 0.612765
vt 0.663295 0.566054
vt 0.703106 0.560995
vt 0.751320 0.574885
vt 0.800225 0.547782
vt 0.764022 0.550083
vt 0.535695 0.565059
vt 0.655690 0.584652
vt 0.410100 0.552252
vt 0.291245 0.549470
vt 0.170847 0.550314
vt 0.126753 0.870869
vt 0.681762 0.872945
vt 0.684099 0.611653
vt 0.129091 0.609578
vt 0.573093 0.858439
vt 0.575430 0.597147
vt 0.459780 0.870275
vt 0.462118 0.608984
vt 0.348780 0.870602
vt 0.351117 0.609310
vt 0.234366 0.871521
vt 0.236703 0.610229
vt 0.015793 0.866987
vt 0.018130 0.605696
vt 0.952847 0.351304
vt 0.876266 0.351304
vt 0.917824 0.276064
vt 0.837975 0.276750
vt 0.876265 0.198141
vt 0.952847 0.198141
vt 0.991138 0.277845
vt 0.877554 0.550728
vt 0.955917 0.549699
vt 0.917259 0.470137
vt 0.835005 0.469960
vt 0.874744 0.389556
vt 0.957377 0.389301
vt 0.996183 0.469000
vt 0.862349 0.937801
vt 0.831557 0.938895
vt 0.839237 0.903882
vt 0.870522 0.901761
vt 0.806097 0.949054
vt 0.757569 0.954834
vt 0.742320 0.877147
vt 0.783690 0.898149
vt 0.855982 0.816949
vt 0.887071 0.813086
vt 0.783246 0.773256
vt 0.798548 0.800100
vt 0.896948 0.718566
vt 0.933604 0.722383
vt 0.834321 0.647547
vt 0.847270 0.687855
vt 0.930945 0.676776
vt 0.963462 0.679470
vt 0.866808 0.621855
vt 0.885817 0.640303
vt 0.950631 0.644946
vt 0.844369 0.532714
vt 0.882201 0.586121
vt 0.905951 0.608591
vt 0.946035 0.692268
vt 0.837275 0.583898
vt 0.835541 0.574092
vt 0.971964 0.644525
vt 0.914068 0.748514
vt 0.756315 0.684330
vt 0.810618 0.605505
vt 0.885586 0.827857
vt 0.717601 0.787961
vt 0.738081 0.751491
vt 0.863609 0.920530
vt 0.689132 0.946784
vt 0.697329 0.860896
vt 0.695134 0.975227
vt 0.865713 0.629457
vt 0.812697 0.698812
vt 0.759910 0.798493
vt 0.751726 0.928423
vn 0.004287 0.127790 -0.991792
vn 0.004287 0.127790 -0.991792
vn 0.004287 0.127790 -0.991792
vn 0.004287 0.127790 -0.991792
vn -0.855194 0.070696 -0.513463
vn -0.855194 0.070696 -0.513463
vn -0.855194 0.070696 -0.513463
vn -0.855194 0.070696 -0.513464
vn -0.866357 0.039915 0.497828
vn -0.866357 0.039915 0.497828
vn -0.866357 0.039915 0.497828
vn -0.866357 0.039915 0.497828
vn 0.000000 0.003171 0.999995
vn 0.000000 0.003171 0.999995
vn 0.000000 0.003171 0.999995
vn 0.000000 0.003171 0.999995
vn 0.868884 -0.056282 0.491807
vn 0.868884 -0.056282 0.491807
vn 0.868884 -0.056282 0.491807
vn 0.868884 -0.056282 0.491807
vn 0.857639 -0.138819 -0.495161
vn 0.857639 -0.138819 -0.495161
vn 0.857639 -0.138819 -0.495161
vn 0.857639 -0.138819 -0.495161
vn 0.000000 -1.000000 0.000000
vn 0.000000 -1.000000 0.000000
vn 0.000000 -1.000000 0.000000
vn 0.000000 -1.000000 0.000000
vn 0.000000 -1.000000 -0.000000
vn 0.000000 -1.000000 0.000000
vn 0.000000 -1.000000 0.000000
vn -0.021630 0.999761 -0.003089
vn -0.021630 0.999761 -0.003089
vn -0.021630 0.999761 -0.003089
vn -0.021630 0.999761 -0.003089
vn -0.051167 0.994544 0.090906
vn -0.051167 0.994544 0.090906
vn -0.051167 0.994544 0.090906
vn -0.051167 0.994544 0.090906
vn 0.005418 0.993575 -0.113048
vn 0.005418 0.993575 -0.113048
vn 0.005418 0.993575 -0.113048
vn 0.005418 0.993575 -0.113048
vn 0.013101 0.989632 0.143030
vn 0.013101 0.989632 0.143030
vn 0.013101 0.989632 0.143030
vn 0.013101 0.989632 0.143030
vn 0.199494 0.971589 0.127349
vn 0.199494 0.971589 0.127349
vn 0.199494 0.971589 0.127349
vn 0.199494 0.971589 0.127349
vn 0.111589 0.992988 -0.039018
vn 0.111589 0.992988 -0.039018
vn 0.111589 0.992988 -0.039018
vn 0.111589 0.992988 -0.039018
vn 0.865162 0.044669 -0.499499
vn 0.865162 0.044669 -0.499499
vn 0.865162 0.044669 -0.499499
vn 0.865162 0.044669 -0.499499
vn 0.864869 0.051653 0.499333
vn 0.864869 0.051653 0.499333
vn 0.864869 0.051653 0.499333
vn 0.864869 0.051653 0.499333
vn 0.000000 0.084680 0.996408
vn 0.000000 0.084680 0.996408
vn 0.000000 0.084680 0.996408
vn 0.000000 0.084680 0.996408
vn -0.846612 0.110219 0.520673
vn -0.846612 0.110219 0.520673
vn -0.846612 0.110219 0.520673
vn -0.846612 0.110219 0.520673
vn -0.853195 0.103981 -0.511122
vn -0.853195 0.103981 -0.511122
vn -0.853195 0.103981 -0.511122
vn -0.853195 0.103981 -0.511122
vn 0.859524 0.091686 -0.502804
vn 0.859524 0.091686 -0.502804
vn 0.859524 0.091686 -0.502804
vn 0.859524 0.091686 -0.502804
vn 0.868096 0.056932 0.493121
vn 0.868096 0.056932 0.493121
vn 0.868096 0.056932 0.493121
vn 0.868096 0.056932 0.493121
vn 0.000300 0.018020 0.999838
vn 0.000300 0.018020 0.999838
vn 0.000300 0.018020 0.999838
vn 0.000300 0.018020 0.999838
vn -0.855330 0.097451 0.508836
vn -0.855330 0.097451 0.508836
vn -0.855330 0.097451 0.508836
vn -0.855330 0.097451 0.508836
vn -0.858774 0.016193 -0.512099
vn -0.858774 0.016193 -0.512099
vn -0.858774 0.016193 -0.512099
vn -0.858774 0.016193 -0.512099
vn 0.680127 -0.733060 0.007061
vn 0.316032 -0.825862 -0.466986
vn 0.433421 -0.323514 -0.841121
vn 0.945214 -0.326112 0.014871
vn 0.352685 -0.779791 0.517243
vn 0.430443 -0.282203 0.857368
vn -0.241487 -0.849488 0.469100
vn -0.522264 -0.222733 0.823183
vn -0.479427 -0.877298 0.022321
vn -0.978479 -0.206346 0.000919
vn -0.228893 -0.883431 -0.408849
vn -0.511586 -0.242113 -0.824416
vn 0.246086 0.876197 -0.414393
vn 0.524836 0.851020 0.017660
vn 0.975540 0.219210 -0.016399
vn 0.495448 0.298597 -0.815703
vn 0.280685 0.841579 0.461476
vn 0.506489 0.275993 0.816882
vn -0.259993 0.847048 0.463588
vn -0.443194 0.380502 0.811664
vn -0.529988 0.847990 0.005092
vn -0.907693 0.419623 -0.003110
vn -0.247955 0.866929 -0.432381
vn -0.437706 0.394523 -0.807939
vn 0.554072 -0.832420 0.008964
vn 0.293284 -0.799758 -0.523805
vn 0.495824 -0.247596 -0.832379
vn 0.978873 -0.204300 -0.008293
vn 0.272326 -0.830381 0.486113
vn 0.494209 -0.180929 0.850307
vn -0.310455 -0.803492 0.507955
vn -0.473032 -0.164143 0.865620
vn -0.587911 -0.808855 0.010725
vn -0.982949 -0.183667 0.008871
vn -0.267368 -0.800733 -0.536042
vn -0.511497 -0.240400 -0.824972
vn 0.224447 0.823733 -0.520660
vn 0.474898 0.880041 0.000001
vn 0.937434 0.348152 -0.002626
vn 0.460481 0.291869 -0.838314
vn 0.237449 0.880037 0.411282
vn 0.464381 0.370714 0.804315
vn -0.290130 0.845841 0.447636
vn -0.460378 0.361876 0.810616
vn -0.659803 0.748961 -0.060972
vn -0.936671 0.350034 -0.011111
vn -0.358548 0.738691 -0.570771
vn -0.442580 0.302612 -0.844126
vn 0.052643 0.052514 -0.997232
vn 0.052643 0.052514 -0.997232
vn 0.052643 0.052514 -0.997232
vn 0.052643 0.052514 -0.997232
vn -0.061108 0.072615 -0.995486
vn -0.061108 0.072615 -0.995486
vn -0.061108 0.072615 -0.995486
vn -0.061108 0.072615 -0.995486
vn 0.000003 0.000001 -1.000000
vn 0.000003 0.000001 -1.000000
vn 0.000003 0.000001 -1.000000
vn 0.000003 0.000001 -1.000000
vn -0.008991 0.132317 -0.991167
vn -0.008991 0.132317 -0.991167
vn -0.008991 0.132317 -0.991167
vn -0.008991 0.132317 -0.991167
vn 0.998619 -0.052533 0.000000
vn 0.998619 -0.052533 0.000000
vn 0.999614 -0.026892 0.006930
vn 0.999551 -0.029301 0.006280
vn -0.998359 0.019942 -0.053673
vn -0.998359 0.019942 -0.053673
vn -0.996926 -0.001075 -0.078348
vn -0.996905 -0.001291 -0.078601
vn -0.003006 -0.997500 -0.070598
vn -0.003006 -0.997500 -0.070598
vn -0.056753 -0.749866 -0.659151
vn -0.061045 -0.706312 -0.705264
vn 0.000000 0.991658 -0.128896
vn 0.000000 0.991658 -0.128896
vn 0.000000 0.707703 0.706510
vn 0.000000 0.710810 0.703384
vn 0.999888 -0.007547 -0.012932
vn 0.999760 -0.003852 -0.021569
vn -0.999752 -0.022167 -0.002360
vn -0.999343 -0.018794 -0.030977
vn -0.061415 -0.161255 -0.985000
vn -0.061179 -0.157618 -0.985603
vn 0.000000 0.207091 0.978322
vn 0.000000 0.218016 0.975945
vn 0.997386 0.003840 -0.072154
vn 0.997724 0.004963 -0.067240
vn -0.996016 -0.030608 0.083760
vn -0.995725 -0.030488 0.087187
vn -0.031702 0.448965 -0.892987
vn -0.030547 0.477070 -0.878334
vn 0.000000 -0.406067 0.913843
vn 0.000000 -0.395383 0.918516
vn 0.997407 -0.007460 -0.071585
vn 0.997012 -0.006835 -0.076948
vn -0.996730 0.051734 0.062077
vn -0.996303 0.067003 0.053770
vn 0.000004 0.989427 -0.145030
vn 0.000004 0.992900 -0.118951
vn 0.000000 -0.994599 0.103790
vn 0.000000 -0.994501 0.104729
vn 0.020102 0.227518 -0.973566
vn 0.020102 0.227518 -0.973566
vn 0.020102 0.227518 -0.973566
vn 0.020102 0.227518 -0.973566
vn 0.063875 0.154024 -0.986000
vn 0.063875 0.154024 -0.986000
vn 0.063875 0.154024 -0.986000
vn 0.063875 0.154024 -0.986000
vn -0.011905 0.099842 -0.994932
vn -0.011905 0.099842 -0.994932
vn -0.011905 0.099842 -0.994932
vn -0.011905 0.099842 -0.994932
vn 0.000004 -0.016015 -0.999872
vn 0.000004 -0.016015 -0.999872
vn 0.000004 -0.016015 -0.999872
vn 0.000004 -0.016015 -0.999872
vn 0.999205 -0.011335 -0.038233
vn 0.999205 -0.011335 -0.038233
vn -0.986780 0.162061 0.001433
vn -0.986780 0.162061 0.001433
vn 0.000003 0.978091 0.208177
vn 0.000003 0.978091 0.208177
vn 0.000001 -0.972138 -0.234409
vn 0.000001 -0.972138 -0.234409
vn -0.000003 0.000000 1.000000
vn -0.000003 0.000000 1.000000
vn -0.000003 0.000000 1.000000
vn -0.000003 0.000000 1.000000
vn 0.860109 0.000000 0.510110
vn 0.860109 0.000000 0.510110
vn 0.860109 0.000000 0.510110
vn 0.860109 0.000000 0.510110
vn 0.871594 0.000000 -0.490229
vn 0.871594 0.000000 -0.490229
vn 0.871594 0.000000 -0.490229
vn 0.871594 0.000000 -0.490229
vn 0.000000 0.000000 -1.000000
vn 0.000000 0.000000 -1.000000
vn 0.000000 0.000000 -1.000000
vn 0.000000 0.000000 -1.000000
vn -0.874463 0.000000 -0.485091
vn -0.874463 0.000000 -0.485091
vn -0.874463 0.000000 -0.485091
vn -0.874463 0.000000 -0.485091
vn -0.856777 0.000000 0.515687
vn -0.856777 0.000000 0.515687
vn -0.856777 0.000000 0.515687
vn -0.856777 0.000000 0.515687
vn -0.024252 0.999656 -0.009963
vn -0.024252 0.999656 -0.009963
vn -0.024252 0.999656 -0.009963
vn -0.128878 0.990020 0.057012
vn -0.128878 0.990020 0.057012
vn -0.128878 0.990020 0.057012
vn -0.128167 0.990583 -0.048149
vn -0.128167 0.990583 -0.048149
vn -0.128167 0.990583 -0.048149
vn -0.011074 0.999645 0.024244
vn -0.011074 0.999645 0.024244
vn -0.011074 0.999645 0.024244
vn 0.000385 0.999833 0.018301
vn 0.000385 0.999833 0.018301
vn 0.000385 0.999833 0.018301
vn 0.000065 0.999995 0.003109
vn 0.000065 0.999995 0.003109
vn 0.000065 0.999995 0.003109
s off
g MokLowOriginal
usemtl lambert6SG
f 1/70/1 2/71/2 25/72/3 20/61/4
f 2/59/5 3/62/6 24/63/7 25/60/8
f 3/62/9 4/64/10 23/65/11 24/63/12
f 4/64/13 5/66/14 22/67/15 23/65/16
f 5/66/17 6/68/18 21/69/19 22/67/20
f 6/68/21 1/70/22 20/61/23 21/69/24
s 1
f 2/164/25 1/165/26 13/166/27
f 3/167/28 2/164/25 13/166/27
f 4/168/29 3/167/28 13/166/27
f 5/169/30 4/168/29 13/166/27
f 6/170/31 5/169/30 13/166/27
f 1/165/26 6/170/31 13/166/27
s off
f 7/133/32 8/131/33 15/132/34 14/113/35
f 8/111/36 9/114/37 16/142/38 15/112/39
f 9/114/40 10/116/41 17/141/42 16/115/43
f 10/116/44 11/118/45 18/140/46 17/117/47
f 11/118/48 12/120/49 19/138/50 18/119/51
f 12/120/52 7/133/53 14/139/54 19/121/55
f 27/1/56 26/2/57 32/18/58 33/3/59
f 28/4/60 27/1/61 33/3/62 34/5/63
f 29/6/64 28/4/65 34/5/66 35/7/67
f 30/8/68 29/6/69 35/7/70 36/9/71
f 31/10/72 30/8/73 36/9/74 37/11/75
f 39/122/76 38/123/77 7/133/78 12/120/79
f 40/124/80 39/122/81 12/120/82 11/118/83
f 41/125/84 40/124/85 11/118/86 10/116/87
f 42/126/88 41/125/89 10/116/90 9/114/91
f 43/127/92 42/126/93 9/114/94 8/111/95
s 2
f 33/73/96 32/95/97 44/74/98 45/75/99
f 34/76/100 33/109/96 45/75/99 46/77/101
f 35/78/102 34/108/100 46/77/101 47/79/103
f 36/80/104 35/107/102 47/79/103 48/81/105
f 37/82/106 36/106/104 48/81/105 49/83/107
f 32/110/97 37/96/106 49/99/107 44/74/98
f 38/105/108 39/104/109 51/86/110 50/100/111
f 39/85/109 40/103/112 52/88/113 51/86/110
f 40/87/112 41/102/114 53/90/115 52/88/113
f 41/89/114 42/101/116 54/92/117 53/90/115
f 42/91/116 43/93/118 55/94/119 54/92/117
f 43/97/118 38/84/108 50/100/111 55/98/119
f 46/77/101 45/75/99 51/86/110 52/88/113
f 47/79/103 46/77/101 52/88/113 53/90/115
f 48/81/105 47/79/103 53/90/115 54/92/117
f 49/83/107 48/81/105 54/92/117 55/94/119
f 44/74/98 49/99/107 55/98/119 50/100/111
f 45/75/99 44/74/98 50/100/111 51/86/110
s 4
f 21/21/120 20/53/121 56/23/122 57/24/123
f 22/25/124 21/52/120 57/24/123 58/26/125
f 23/27/126 22/51/124 58/26/125 59/28/127
f 24/29/128 23/50/126 59/28/127 60/30/129
f 25/31/130 24/49/128 60/30/129 61/32/131
f 20/22/121 25/44/130 61/47/131 56/23/122
f 26/54/132 27/55/133 63/35/134 62/48/135
f 27/34/133 28/56/136 64/37/137 63/35/134
f 28/36/136 29/57/138 65/39/139 64/37/137
f 29/38/138 30/58/140 66/41/141 65/39/139
f 30/40/140 31/42/142 67/43/143 66/41/141
f 31/45/142 26/33/132 62/48/135 67/46/143
f 58/26/125 57/24/123 63/35/134 64/37/137
f 57/24/123 56/23/122 62/48/135 63/35/134
f 56/23/122 61/47/131 67/46/143 62/48/135
f 61/32/131 60/30/129 66/41/141 67/43/143
f 60/30/129 59/28/127 65/39/139 66/41/141
f 59/28/127 58/26/125 64/37/137 65/39/139
s off
f 32/18/144 26/2/145 68/12/146 69/19/147
f 31/10/148 37/11/149 71/13/150 70/14/151
f 26/2/152 31/15/153 70/16/154 68/12/155
f 37/17/156 32/18/157 69/19/158 71/20/159
s 6
f 69/171/160 68/172/161 72/173/162 73/205/163
s 7
f 70/175/164 71/176/165 75/212/166 74/178/167
s 8
f 68/172/168 70/175/169 74/178/170 72/173/171
s 9
f 71/176/172 69/208/173 73/206/174 75/212/175
s 6
f 73/174/163 72/173/162 76/179/176 77/202/177
s 7
f 74/178/167 75/177/166 79/211/178 78/182/179
s 8
f 72/173/171 74/178/170 78/182/180 76/179/181
s 9
f 75/177/175 73/207/174 77/203/182 79/211/183
s 6
f 77/180/177 76/179/176 80/183/184 81/199/185
s 7
f 78/182/179 79/181/178 83/210/186 82/186/187
s 8
f 76/179/181 78/182/180 82/186/188 80/183/189
s 9
f 79/181/183 77/204/182 81/200/190 83/210/191
s 6
f 81/184/185 80/183/184 84/187/192 85/195/193
s 7
f 82/186/187 83/185/186 87/209/194 86/190/195
s 8
f 80/183/189 82/186/188 86/190/196 84/187/197
s 9
f 83/185/191 81/201/190 85/196/198 87/209/199
s off
f 8/131/200 7/133/201 88/134/202 89/135/203
f 7/133/204 38/123/205 90/129/206 88/134/207
f 43/127/208 8/111/209 89/128/210 91/130/211
f 38/123/212 43/136/213 91/137/214 90/129/215
s 6
f 85/188/193 84/187/192 88/191/216 90/198/217
s 7
f 86/190/195 87/189/194 91/193/218 89/194/219
s 8
f 84/187/197 86/190/196 89/194/220 88/191/221
s 9
f 87/189/199 85/197/198 90/192/222 91/193/223
s off
f 14/143/224 15/155/225 93/156/226 92/146/227
f 15/144/228 16/147/229 94/148/230 93/145/231
f 16/147/232 17/149/233 95/150/234 94/148/235
f 17/149/236 18/151/237 96/152/238 95/150/239
f 18/151/240 19/153/241 97/154/242 96/152/243
f 19/153/244 14/143/245 92/146/246 97/154/247
f 92/157/248 93/158/249 98/159/250
f 93/158/251 94/160/252 98/159/253
f 94/160/254 95/161/255 98/159/256
f 95/161/257 96/162/258 98/159/259
f 96/162/260 97/163/261 98/159/262
f 97/163/263 92/157/264 98/159/265
